<?xml version="1.0" encoding="utf-8"?>
<!-- Generator: Adobe Illustrator 27.5.0, SVG Export Plug-In . SVG Version: 6.00 Build 0)  -->
<svg version="1.1" id="レイヤー_1" xmlns="http://www.w3.org/2000/svg" xmlns:xlink="http://www.w3.org/1999/xlink" x="0px"
	 y="0px" viewBox="0 0 1154.9 195.2" style="enable-background:new 0 0 1154.9 195.2;" xml:space="preserve">
<style type="text/css">
	.st0{fill:#78BC27;}
	.st1{fill:#FFFFFF;}
</style>
<rect class="st0" width="1154.9" height="195.2"/>
<g>
	<path class="st1" d="M5,16.4l28.2,0.2l1.6,1.4c-1,24.8-2,41.8-3,62.4c-0.8,17.4-2,39.8-2,55.4c0,14.4,6.8,20.8,18.8,20.8
		c23,0,49-18,66-49l17.4,23.2c1.8,2.2,2.2,3.8,0.6,6.4C112.8,168.6,81.4,187,50.8,187C20.6,187,0,172.8,0,139
		c0-27.8,1.4-46.4,2-64.6c0.6-15.6,1.6-33.2,1.6-56.6L5,16.4z"/>
	<path class="st1" d="M188.2,21l26.6,3l1.4,1.6c-0.4,13-2.8,28.8-6.2,45.6c-3,14.8-6.2,29.2-6.2,45.8c0,8.6,0.8,16.8,2.4,23.4
		c0.6,2.4,2,2.6,4.4,0.2c3.8-3.8,7.4-7.6,13.4-15.4l5.4,3c-6.8,21.4-9,27.4-8.6,36.4c0.8,12.6-4.4,18.6-14.8,18.6
		c-7.8,0-14.4-5.8-18.4-12.4c-5.6-9.4-12-27-12-54.2c0-17.8,4-43.4,7-59.2c2.4-12.8,3.6-23.4,4-35.2L188.2,21z M238.8,175.6
		c17.8-7,29.2-17.6,35.8-28.8c4.4-7.2,6.8-18.2,6.8-37c0-6.2,0-15.2-0.4-24.4c-13.2,0.6-27,0.8-41.6,1l-1.2-1.8l-0.6-24.4l1.6-1
		c13.4,0,27.4-0.4,40.6-1.2c-0.4-11.4-1.2-23.6-2-36.4l1.6-1.2l27.4-0.6l1.4,1.4c0.6,11.8,1.2,23.2,1.6,34.6c10.2-0.8,19.4-2,27.8-3
		L339,54l1.2,24.8l-1.2,1.4c-8.8,1.2-18.2,2.4-28.4,3.2c0.4,10.2,0.6,20.4,0.6,27c0,28.4-3.8,43.6-11,54.4
		c-7,11-18.2,21.8-33.8,28.4c-0.6,0.2-1.2,0.4-1.6,0.4c-0.8,0-1.8-0.4-2.6-1L238.8,175.6z M309.4,10.2l12.2-3.8l2,0.4
		c5.2,8,9.6,16.8,13,26.4l-0.8,1.8L323,39l-2-0.6c-3.4-9.6-6.8-17.6-12.2-26.6L309.4,10.2z M331.2,4l12-4l2,0.4
		c5.2,8.2,9.2,16.2,12.6,25.6l-0.8,2l-12.2,4l-2-0.6c-3.4-9.8-6.8-17-12.2-25.8L331.2,4z"/>
	<path class="st1" d="M522.6,176.4c-18.4,1.4-37.8,2.2-63,2.2c-48,0-71-14.6-71-46c0-18.2,15-35.6,36.2-50.6
		c-9.8-14-20.4-31.6-29.2-47.6l0.4-2l24.2-12.6l2,0.6c8.8,16,18.8,32.8,28.4,46.6c18.2-9.2,38.6-17.8,58.6-25.2l2,0.8L523,68.8
		l-0.8,1.6C504.8,76.2,487,83,475.4,88c-3.2,2.6-5,5.2-5.4,10c-0.6,8-8.2,13-14.4,13c-5.4,0-9.8-2-13.8-5.4
		c-15.6,9-22.6,17.4-22.6,26.8c0,13.4,17,16.4,40.6,16.4c17.6,0,37.2-1.4,61.6-4l1.6,1.2l0.8,28.6L522.6,176.4z"/>
	<path class="st1" d="M702.8,187c-30.8-23.6-60.2-41.8-98.4-61.6c-8.2-4.2-13.4-10.4-13.4-19.6c0-8.2,4.4-14.4,11.2-21
		c22.8-22.2,53-46.4,83.6-70.2h2.2l20.8,23v2c-28.2,19.2-58.4,40.6-77.8,57.6c-2,1.6-3.2,3.8-3,5.2c0.2,1.4,1.6,2.8,3.4,3.6
		c25.8,11.8,62,32.6,92.8,54l0.2,2l-19.8,24.8L702.8,187z"/>
	<path class="st1" d="M791,76.6l-24,0.6l-1.4-1.2V53.6l1.2-1.2L791,53h10V36c-7,0.6-13.6,1.2-20,1.6c-3.4,0.2-4.2-0.2-4.8-1.2
		l-11.4-20c33.6-2.2,56-5.4,73.8-10.2l2.2,0.2c8.2,6.2,14,11.8,20.2,17.6l-0.6,2c-10,2.4-20.8,4.4-32,6.2V53h8.4l20-0.6l1.2,1v22.8
		l-1.2,1l-20-0.6h-8.4v21.8l9.4-6.2l1.8,0.2c8.2,7.4,15,15.8,21.4,25.2l-0.2,2L842,132.2l-2-0.2c-3.6-6.2-7.4-12.2-11.6-17.8V127
		l1.6,68.2h-30.4l1.8-77.6c-5.6,13.2-13,25.2-21.2,37c-0.8,1.2-1.8,1.8-2.6,1.8c-1.2,0-2.2-0.8-3-2.2l-13-21
		c12.4-15,23.8-32.8,34-56.6H791z M890.8,188h-28l0.6-97.8V50.8L862.8,27l1.2-1.2l27.6,0.6h26.8l26.2-0.6l1.6,1.6l-0.6,24.4v37
		l0.6,94.8h-28.8v-15.2h-26.6L890.8,188L890.8,188z M917.4,145V49.4h-26.6V145H917.4z"/>
	<path class="st1" d="M1019.8,63.2c-1.4-5.2-3.2-10.4-4.8-14.8l1.2-1.8l23-3.6l1.8,1c2.8,6,5.4,12.8,7.4,19.2h24
		c2.4-6.4,4.6-12.6,6.2-19.2l1.8-1l24.4,4l1.4,1.4c-1.4,5-3.4,10-5.4,14.8h14.6l32.2-0.6l1.4,1.4v20.6l-1.4,1.4l-32.2-0.6h-5.4l14,9
		l-0.2,2.2c-30.4,15.8-62.4,24.2-97.8,27.8c-2.8,0.2-4.4-0.6-5.8-2.6l-13.6-19c37.6-2.6,62.6-7.6,85.6-17.4H1005v20
		c0,23.4-2.4,46-9.8,66.4c56.2-3.4,106-15.4,135-30.2l2,0.2l21,15.4l-0.2,2.2c-39.6,19.6-84.6,31.4-139.4,34.8
		c-2.8,0.2-4.4-0.6-5.8-2.6l-13-18.8c-2.8,7.4-6.2,14.4-10.4,21.2c-0.6,0.8-1,1.2-1.6,1.2s-1.4-0.4-2.4-1.2L962,176.6
		c12.8-22.4,16.4-47,16.4-70.2V90.8L977.8,64l1.4-1.4l33.2,0.6L1019.8,63.2L1019.8,63.2z M1043.6,5.2l1.4-1.6h27.2l1.4,1.4v14.8
		h38.2l28.2-0.4l1.4,1.2v20.2l-1.4,1.4l-28.2-0.6H1006l-28,0.6l-1.4-1.6V20.4l1.6-1l27.8,0.4h37.6V5.2z M1138,127
		c-36.6,18-68.8,26.6-110.6,31.2c-2.8,0.4-4.4-0.6-5.8-2.6l-13.6-19.4c46.2-4.2,83-12.8,108-26.4l2,0.2l20.2,14.8L1138,127z"/>
</g>
</svg>
