<?xml version="1.0" encoding="utf-8"?>
<!-- Generator: Adobe Illustrator 27.5.0, SVG Export Plug-In . SVG Version: 6.00 Build 0)  -->
<svg version="1.1" id="レイヤー_1" xmlns="http://www.w3.org/2000/svg" xmlns:xlink="http://www.w3.org/1999/xlink" x="0px"
	 y="0px" viewBox="0 0 1500 300" style="enable-background:new 0 0 1500 300;" xml:space="preserve">
<style type="text/css">
	.st0{fill:#75B32E;}
	.st1{fill:#FFFFFF;}
</style>
<rect class="st0" width="1500" height="300"/>
<g>
	<path class="st1" d="M178.4,68.8l28.2,0.2l1.6,1.4c-1,24.8-2,41.8-3,62.4c-0.8,17.4-2,39.8-2,55.4c0,14.4,6.8,20.8,18.8,20.8
		c23,0,49-18,66-49l17.4,23.2c1.8,2.2,2.2,3.8,0.6,6.4c-19.8,31.4-51.2,49.8-81.8,49.8c-30.2,0-50.8-14.2-50.8-48
		c0-27.8,1.4-46.4,2-64.6c0.6-15.6,1.6-33.2,1.6-56.6L178.4,68.8z"/>
	<path class="st1" d="M361.6,73.4l26.6,3l1.4,1.6c-0.4,13-2.8,28.8-6.2,45.6c-3,14.8-6.2,29.2-6.2,45.8c0,8.6,0.8,16.8,2.4,23.4
		c0.6,2.4,2,2.6,4.4,0.2c3.8-3.8,7.4-7.6,13.4-15.4l5.4,3c-6.8,21.4-9,27.4-8.6,36.4c0.8,12.6-4.4,18.6-14.8,18.6
		c-7.8,0-14.4-5.8-18.4-12.4c-5.6-9.4-12-27-12-54.2c0-17.8,4-43.4,7-59.2c2.4-12.8,3.6-23.4,4-35.2L361.6,73.4z M412.2,228
		c17.8-7,29.2-17.6,35.8-28.8c4.4-7.2,6.8-18.2,6.8-37c0-6.2,0-15.2-0.4-24.4c-13.2,0.6-27,0.8-41.6,1l-1.2-1.8l-0.6-24.4l1.6-1
		c13.4,0,27.4-0.4,40.6-1.2c-0.4-11.4-1.2-23.6-2-36.4l1.6-1.2l27.4-0.6l1.4,1.4c0.6,11.8,1.2,23.2,1.6,34.6c10.2-0.8,19.4-2,27.8-3
		l1.4,1.2l1.2,24.8l-1.2,1.4c-8.8,1.2-18.2,2.4-28.4,3.2c0.4,10.2,0.6,20.4,0.6,27c0,28.4-3.8,43.6-11,54.4
		c-7,11-18.2,21.8-33.8,28.4c-0.6,0.2-1.2,0.4-1.6,0.4c-0.8,0-1.8-0.4-2.6-1L412.2,228z M482.8,62.6l12.2-3.8l2,0.4
		c5.2,8,9.6,16.8,13,26.4l-0.8,1.8l-12.8,4l-2-0.6c-3.4-9.6-6.8-17.6-12.2-26.6L482.8,62.6z M504.6,56.4l12-4l2,0.4
		c5.2,8.2,9.2,16.2,12.6,25.6l-0.8,2l-12.2,4l-2-0.6c-3.4-9.8-6.8-17-12.2-25.8L504.6,56.4z"/>
	<path class="st1" d="M696,228.8c-18.4,1.4-37.8,2.2-63,2.2c-48,0-71-14.6-71-46c0-18.2,15-35.6,36.2-50.6
		c-9.8-14-20.4-31.6-29.2-47.6l0.4-2l24.2-12.6l2,0.6c8.8,16,18.8,32.8,28.4,46.6c18.2-9.2,38.6-17.8,58.6-25.2l2,0.8l11.8,26.2
		l-0.8,1.6c-17.4,5.8-35.2,12.6-46.8,17.6c-3.2,2.6-5,5.2-5.4,10c-0.6,8-8.2,13-14.4,13c-5.4,0-9.8-2-13.8-5.4
		c-15.6,9-22.6,17.4-22.6,26.8c0,13.4,17,16.4,40.6,16.4c17.6,0,37.2-1.4,61.6-4l1.6,1.2l0.8,28.6L696,228.8z"/>
	<path class="st1" d="M876.2,239.4c-30.8-23.6-60.2-41.8-98.4-61.6c-8.2-4.2-13.4-10.4-13.4-19.6c0-8.2,4.4-14.4,11.2-21
		c22.8-22.2,53-46.4,83.6-70.2h2.2l20.8,23v2c-28.2,19.2-58.4,40.6-77.8,57.6c-2,1.6-3.2,3.8-3,5.2s1.6,2.8,3.4,3.6
		c25.8,11.8,62,32.6,92.8,54l0.2,2L878,239.2L876.2,239.4z"/>
	<path class="st1" d="M964.4,129l-24,0.6l-1.4-1.2V106l1.2-1.2l24.2,0.6h10v-17c-7,0.6-13.6,1.2-20,1.6c-3.4,0.2-4.2-0.2-4.8-1.2
		l-11.4-20c33.6-2.2,56-5.4,73.8-10.2l2.2,0.2c8.2,6.2,14,11.8,20.2,17.6l-0.6,2c-10,2.4-20.8,4.4-32,6.2v20.8h8.4l20-0.6l1.2,1
		v22.8l-1.2,1l-20-0.6h-8.4v21.8l9.4-6.2l1.8,0.2c8.2,7.4,15,15.8,21.4,25.2l-0.2,2l-18.8,12.6l-2-0.2c-3.6-6.2-7.4-12.2-11.6-17.8
		v12.8l1.6,68.2H973l1.8-77.6c-5.6,13.2-13,25.2-21.2,37c-0.8,1.2-1.8,1.8-2.6,1.8c-1.2,0-2.2-0.8-3-2.2l-13-21
		c12.4-15,23.8-32.8,34-56.6H964.4z M1064.2,240.4h-28l0.6-97.8v-39.4l-0.6-23.8l1.2-1.2l27.6,0.6h26.8l26.2-0.6l1.6,1.6l-0.6,24.4
		v37l0.6,94.8h-28.8v-15.2h-26.6L1064.2,240.4L1064.2,240.4z M1090.8,197.4v-95.6h-26.6v95.6H1090.8z"/>
	<path class="st1" d="M1193.2,115.6c-1.4-5.2-3.2-10.4-4.8-14.8l1.2-1.8l23-3.6l1.8,1c2.8,6,5.4,12.8,7.4,19.2h24
		c2.4-6.4,4.6-12.6,6.2-19.2l1.8-1l24.4,4l1.4,1.4c-1.4,5-3.4,10-5.4,14.8h14.6l32.2-0.6l1.4,1.4V137l-1.4,1.4l-32.2-0.6h-5.4l14,9
		l-0.2,2.2c-30.4,15.8-62.4,24.2-97.8,27.8c-2.8,0.2-4.4-0.6-5.8-2.6l-13.6-19c37.6-2.6,62.6-7.6,85.6-17.4h-87.2v20
		c0,23.4-2.4,46-9.8,66.4c56.2-3.4,106-15.4,135-30.2l2,0.2l21,15.4l-0.2,2.2c-39.6,19.6-84.6,31.4-139.4,34.8
		c-2.8,0.2-4.4-0.6-5.8-2.6l-13-18.8c-2.8,7.4-6.2,14.4-10.4,21.2c-0.6,0.8-1,1.2-1.6,1.2s-1.4-0.4-2.4-1.2l-18.4-17.4
		c12.8-22.4,16.4-47,16.4-70.2v-15.6l-0.6-26.8l1.4-1.4l33.2,0.6L1193.2,115.6L1193.2,115.6z M1217,57.6l1.4-1.6h27.2l1.4,1.4v14.8
		h38.2l28.2-0.4l1.4,1.2v20.2l-1.4,1.4l-28.2-0.6h-105.8l-28,0.6L1150,93V72.8l1.6-1l27.8,0.4h37.6V57.6z M1311.4,179.4
		c-36.6,18-68.8,26.6-110.6,31.2c-2.8,0.4-4.4-0.6-5.8-2.6l-13.6-19.4c46.2-4.2,83-12.8,108-26.4l2,0.2l20.2,14.8L1311.4,179.4z"/>
</g>
</svg>
